<?xml version="1.0" encoding="UTF-8"?>
<!DOCTYPE svg PUBLIC "-//W3C//DTD SVG 1.1//EN" "http://www.w3.org/Graphics/SVG/1.1/DTD/svg11.dtd">
<svg xmlns="http://www.w3.org/2000/svg" version="1.1" width="225px" height="225px" style="shape-rendering:geometricPrecision; text-rendering:geometricPrecision; image-rendering:optimizeQuality; fill-rule:evenodd; clip-rule:evenodd" xmlns:xlink="http://www.w3.org/1999/xlink">
<g><path style="opacity:1" fill="#010101" d="M -0.5,-0.5 C 16.1667,-0.5 32.8333,-0.5 49.5,-0.5C 49.5,-0.166667 49.5,0.166667 49.5,0.5C 45.9581,0.187225 42.6248,0.520558 39.5,1.5C 28.9877,3.41907 20.3211,8.41907 13.5,16.5C 6.20696,23.7528 1.54029,32.4194 -0.5,42.5C -0.5,28.1667 -0.5,13.8333 -0.5,-0.5 Z"/></g>
<g><path style="opacity:1" fill="#0a0d10" d="M 49.5,0.5 C 49.5,0.166667 49.5,-0.166667 49.5,-0.5C 107.833,-0.5 166.167,-0.5 224.5,-0.5C 224.5,14.5 224.5,29.5 224.5,44.5C 221.357,26.6851 211.69,13.6851 195.5,5.5C 192.14,3.49447 188.474,1.99447 184.5,1C 139.501,0.500009 94.5012,0.333342 49.5,0.5 Z"/></g>
<g><path style="opacity:1" fill="#1a589e" d="M 39.5,1.5 C 42.6248,0.520558 45.9581,0.187225 49.5,0.5C 94.5012,0.333342 139.501,0.500009 184.5,1C 188.474,1.99447 192.14,3.49447 195.5,5.5C 191.5,4.5 187.5,3.5 183.5,2.5C 135.67,1.50118 87.6696,1.16784 39.5,1.5 Z"/></g>
<g><path style="opacity:1" fill="#1263b8" d="M 39.5,1.5 C 87.6696,1.16784 135.67,1.50118 183.5,2.5C 135.553,2.37876 87.5529,2.54542 39.5,3C 40.6721,3.41862 41.6721,4.08529 42.5,5C 38.8606,4.72206 35.1939,4.72206 31.5,5C 32.8333,5.33333 34.1667,5.66667 35.5,6C 33.7505,7.31864 31.7505,7.81864 29.5,7.5C 29.281,8.67504 29.6143,9.67504 30.5,10.5C 31.891,9.35536 33.2243,9.35536 34.5,10.5C 31.6392,13.1448 28.3058,13.9782 24.5,13C 23.9535,12.0754 23.2868,11.2421 22.5,10.5C 20.0976,13.4349 17.0976,15.4349 13.5,16.5C 20.3211,8.41907 28.9877,3.41907 39.5,1.5 Z"/></g>
<g><path style="opacity:1" fill="#0b65c2" d="M 183.5,2.5 C 187.5,3.5 191.5,4.5 195.5,5.5C 211.69,13.6851 221.357,26.6851 224.5,44.5C 224.5,89.5 224.5,134.5 224.5,179.5C 219.978,203.023 205.978,217.356 182.5,222.5C 135.499,222.667 88.4988,222.5 41.5,222C 36.4234,220.103 31.4234,218.103 26.5,216C 33.6488,210.33 32.6488,208.497 23.5,210.5C 24.8532,211.524 25.5198,212.857 25.5,214.5C 22.3929,213.447 19.3929,212.114 16.5,210.5C 6.94254,202.282 1.27588,191.949 -0.5,179.5C -0.5,133.833 -0.5,88.1667 -0.5,42.5C 1.54029,32.4194 6.20696,23.7528 13.5,16.5C 17.0976,15.4349 20.0976,13.4349 22.5,10.5C 23.2868,11.2421 23.9535,12.0754 24.5,13C 28.3058,13.9782 31.6392,13.1448 34.5,10.5C 33.2243,9.35536 31.891,9.35536 30.5,10.5C 29.6143,9.67504 29.281,8.67504 29.5,7.5C 31.7505,7.81864 33.7505,7.31864 35.5,6C 34.1667,5.66667 32.8333,5.33333 31.5,5C 35.1939,4.72206 38.8606,4.72206 42.5,5C 41.6721,4.08529 40.6721,3.41862 39.5,3C 87.5529,2.54542 135.553,2.37876 183.5,2.5 Z"/></g>
<g><path style="opacity:1" fill="#020203" d="M 65.5,44.5 C 74.0649,52.3241 74.7316,60.8241 67.5,70C 61.7566,73.9166 55.7566,74.4166 49.5,71.5C 47.1394,69.8061 45.1394,67.8061 43.5,65.5C 41.9671,59.7022 42.3004,54.0356 44.5,48.5C 50.5559,42.3236 57.5559,40.9903 65.5,44.5 Z"/></g>
<g><path style="opacity:1" fill="#225b9e" d="M 44.5,48.5 C 42.3004,54.0356 41.9671,59.7022 43.5,65.5C 42.2502,65.4226 41.4169,64.756 41,63.5C 40.1735,59.4589 40.3401,55.4589 41.5,51.5C 42.1411,50.0065 43.1411,49.0065 44.5,48.5 Z"/></g>
<g><path style="opacity:1" fill="#1962b3" d="M 65.5,44.5 C 67.7808,46.4279 70.4475,47.4279 73.5,47.5C 74.5505,52.8435 74.5505,58.1768 73.5,63.5C 73.3898,65.374 74.0564,66.874 75.5,68C 73.5,70.6667 71.5,73.3333 69.5,76C 69.8333,76.3333 70.1667,76.6667 70.5,77C 69.552,77.4828 68.552,77.6495 67.5,77.5C 67.5,76.5 67.5,75.5 67.5,74.5C 62.1563,74.666 56.8229,74.4994 51.5,74C 50.244,73.5831 49.5774,72.7498 49.5,71.5C 55.7566,74.4166 61.7566,73.9166 67.5,70C 74.7316,60.8241 74.0649,52.3241 65.5,44.5 Z"/></g>
<g><path style="opacity:1" fill="#2b3540" d="M 89.5,87.5 C 98.9856,86.5062 108.652,86.1729 118.5,86.5C 118.5,91.1667 118.5,95.8333 118.5,100.5C 117.499,96.9403 117.166,92.607 117.5,87.5C 108.167,87.5 98.8333,87.5 89.5,87.5 Z"/></g>
<g><path style="opacity:1" fill="#000000" d="M 181.5,119.5 C 181.5,139.833 181.5,160.167 181.5,180.5C 171.833,180.5 162.167,180.5 152.5,180.5C 152.667,161.83 152.5,143.164 152,124.5C 151.44,120.373 149.607,117.04 146.5,114.5C 146.167,114.5 145.833,114.5 145.5,114.5C 143.089,112.14 140.089,111.14 136.5,111.5C 133.514,111.382 130.848,112.048 128.5,113.5C 124.764,114.905 122.431,117.571 121.5,121.5C 119.825,124.507 119.159,127.84 119.5,131.5C 118.504,147.658 118.17,163.991 118.5,180.5C 108.833,180.5 99.1667,180.5 89.5,180.5C 89.5,149.5 89.5,118.5 89.5,87.5C 98.8333,87.5 108.167,87.5 117.5,87.5C 117.166,92.607 117.499,96.9403 118.5,100.5C 130.015,86.8683 144.349,83.035 161.5,89C 174.723,94.7468 181.39,104.913 181.5,119.5 Z"/></g>
<g><path style="opacity:1" fill="#354455" d="M 41.5,86.5 C 52.1667,86.5 62.8333,86.5 73.5,86.5C 73.5,118.167 73.5,149.833 73.5,181.5C 62.8333,181.5 52.1667,181.5 41.5,181.5C 41.5,149.833 41.5,118.167 41.5,86.5 Z"/></g>
<g><path style="opacity:1" fill="#000000" d="M 42.5,87.5 C 52.5,87.5 62.5,87.5 72.5,87.5C 72.5,118.5 72.5,149.5 72.5,180.5C 62.5,180.5 52.5,180.5 42.5,180.5C 42.5,149.5 42.5,118.5 42.5,87.5 Z"/></g>
<g><path style="opacity:1" fill="#315e8e" d="M 145.5,114.5 C 139.959,112.267 134.293,111.933 128.5,113.5C 130.848,112.048 133.514,111.382 136.5,111.5C 140.089,111.14 143.089,112.14 145.5,114.5 Z"/></g>
<g><path style="opacity:1" fill="#0f62b6" d="M 182.5,127.5 C 183.5,127.5 184.5,127.5 185.5,127.5C 185.167,143.514 185.501,159.514 186.5,175.5C 188.343,174.061 190.01,174.228 191.5,176C 189.667,177.788 187.667,177.954 185.5,176.5C 184.999,178.655 183.999,180.322 182.5,181.5C 182.5,163.5 182.5,145.5 182.5,127.5 Z"/></g>
<g><path style="opacity:1" fill="#23272d" d="M 119.5,131.5 C 119.5,148.167 119.5,164.833 119.5,181.5C 109.319,181.827 99.3194,181.494 89.5,180.5C 99.1667,180.5 108.833,180.5 118.5,180.5C 118.17,163.991 118.504,147.658 119.5,131.5 Z"/></g>
<g><path style="opacity:1" fill="#14589d" d="M 121.5,121.5 C 120.881,141.647 120.214,161.647 119.5,181.5C 119.5,164.833 119.5,148.167 119.5,131.5C 119.159,127.84 119.825,124.507 121.5,121.5 Z"/></g>
<g><path style="opacity:1" fill="#1a60a7" d="M 146.5,114.5 C 149.607,117.04 151.44,120.373 152,124.5C 152.5,143.164 152.667,161.83 152.5,180.5C 152.5,180.833 152.5,181.167 152.5,181.5C 151.883,181.389 151.383,181.056 151,180.5C 150.5,161.17 150.333,141.836 150.5,122.5C 145.734,122.943 144.734,121.443 147.5,118C 147.011,116.862 146.678,115.695 146.5,114.5 Z"/></g>
<g><path style="opacity:1" fill="#29313c" d="M 181.5,119.5 C 182.473,121.948 182.806,124.615 182.5,127.5C 182.5,145.5 182.5,163.5 182.5,181.5C 172.5,181.5 162.5,181.5 152.5,181.5C 152.5,181.167 152.5,180.833 152.5,180.5C 162.167,180.5 171.833,180.5 181.5,180.5C 181.5,160.167 181.5,139.833 181.5,119.5 Z"/></g>
<g><path style="opacity:1" fill="#010102" d="M -0.5,179.5 C 1.27588,191.949 6.94254,202.282 16.5,210.5C 25.0301,218.926 35.3635,223.26 47.5,223.5C 47.5,223.833 47.5,224.167 47.5,224.5C 31.5,224.5 15.5,224.5 -0.5,224.5C -0.5,209.5 -0.5,194.5 -0.5,179.5 Z"/></g>
<g><path style="opacity:1" fill="#0d0f12" d="M 224.5,179.5 C 224.5,194.5 224.5,209.5 224.5,224.5C 165.5,224.5 106.5,224.5 47.5,224.5C 47.5,224.167 47.5,223.833 47.5,223.5C 92.6698,223.832 137.67,223.499 182.5,222.5C 205.978,217.356 219.978,203.023 224.5,179.5 Z"/></g>
<g><path style="opacity:1" fill="#155baa" d="M 182.5,222.5 C 137.67,223.499 92.6698,223.832 47.5,223.5C 35.3635,223.26 25.0301,218.926 16.5,210.5C 19.3929,212.114 22.3929,213.447 25.5,214.5C 25.5198,212.857 24.8532,211.524 23.5,210.5C 32.6488,208.497 33.6488,210.33 26.5,216C 31.4234,218.103 36.4234,220.103 41.5,222C 88.4988,222.5 135.499,222.667 182.5,222.5 Z"/></g>
</svg>
