<?xml version="1.0" encoding="UTF-8"?>
<!DOCTYPE svg PUBLIC "-//W3C//DTD SVG 1.1//EN" "http://www.w3.org/Graphics/SVG/1.1/DTD/svg11.dtd">
<svg xmlns="http://www.w3.org/2000/svg" version="1.1" width="225px" height="225px" style="shape-rendering:geometricPrecision; text-rendering:geometricPrecision; image-rendering:optimizeQuality; fill-rule:evenodd; clip-rule:evenodd" xmlns:xlink="http://www.w3.org/1999/xlink">
<g><path style="opacity:1" fill="#000000" d="M -0.5,-0.5 C 74.5,-0.5 149.5,-0.5 224.5,-0.5C 224.5,74.5 224.5,149.5 224.5,224.5C 149.5,224.5 74.5,224.5 -0.5,224.5C -0.5,149.5 -0.5,74.5 -0.5,-0.5 Z"/></g>
<g><path style="opacity:1" fill="#6c1f23" d="M 55.5,50.5 C 55.5,50.8333 55.5,51.1667 55.5,51.5C 51.5559,51.1134 47.8892,51.78 44.5,53.5C 44.9528,52.5416 45.6195,51.7083 46.5,51C 49.4816,50.502 52.4816,50.3354 55.5,50.5 Z"/></g>
<g><path style="opacity:1" fill="#681e1e" d="M 167.5,51.5 C 167.5,51.1667 167.5,50.8333 167.5,50.5C 170.85,50.335 174.183,50.5017 177.5,51C 178.71,52.0391 179.71,53.2058 180.5,54.5C 178.577,54.205 176.91,53.3717 175.5,52C 172.854,51.5026 170.187,51.3359 167.5,51.5 Z"/></g>
<g><path style="opacity:1" fill="#972123" d="M 55.5,51.5 C 55.8417,52.3382 56.5084,52.6716 57.5,52.5C 58.5846,54.5869 60.2512,55.9202 62.5,56.5C 63.5846,58.5869 65.2512,59.9202 67.5,60.5C 68.2623,62.2624 69.5956,63.2624 71.5,63.5C 72.5,64.8333 73.5,66.1667 74.5,67.5C 71.8764,65.5498 68.8764,64.0498 65.5,63C 62.5852,59.5413 59.2518,56.5413 55.5,54C 51.0156,53.269 46.6822,53.769 42.5,55.5C 42.8333,54.5 43.5,53.8333 44.5,53.5C 47.8892,51.78 51.5559,51.1134 55.5,51.5 Z"/></g>
<g><path style="opacity:1" fill="#c57d7b" d="M 55.5,50.5 C 56.1667,50.5 56.8333,50.5 57.5,50.5C 57.5,51.1667 57.5,51.8333 57.5,52.5C 56.5084,52.6716 55.8417,52.3382 55.5,51.5C 55.5,51.1667 55.5,50.8333 55.5,50.5 Z"/></g>
<g><path style="opacity:1" fill="#cad7de" d="M 119.5,51.5 C 121.604,51.2011 123.604,51.5344 125.5,52.5C 123.783,52.7906 121.783,53.4572 119.5,54.5C 118.585,55.3279 117.919,56.3279 117.5,57.5C 118.759,60.4064 119.759,63.4064 120.5,66.5C 123.379,67.8026 124.045,69.8026 122.5,72.5C 125.167,74.5 125.167,76.5 122.5,78.5C 123.05,80.6568 123.717,82.6568 124.5,84.5C 122.167,86.5 119.833,88.5 117.5,90.5C 115.435,90.5172 113.435,90.8505 111.5,91.5C 111.328,89.5082 111.995,87.8415 113.5,86.5C 112.185,85.1054 112.519,84.1054 114.5,83.5C 115.652,80.8938 115.818,78.2272 115,75.5C 112.656,70.6351 109.989,65.9684 107,61.5C 106.505,59.5273 106.338,57.5273 106.5,55.5C 109.939,53.2579 114.272,51.9245 119.5,51.5 Z"/></g>
<g><path style="opacity:1" fill="#d18787" d="M 57.5,52.5 C 59.7488,53.0798 61.4154,54.4131 62.5,56.5C 60.2512,55.9202 58.5846,54.5869 57.5,52.5 Z"/></g>
<g><path style="opacity:1" fill="#ceb6bf" d="M 165.5,51.5 C 163.5,53.8333 161.5,56.1667 159.5,58.5C 157.246,59.4151 155.246,60.7484 153.5,62.5C 153.729,60.567 154.562,58.9003 156,57.5C 157.011,56.6634 158.178,56.33 159.5,56.5C 159.5,55.1667 159.5,53.8333 159.5,52.5C 161.5,52.1667 163.5,51.8333 165.5,51.5 Z"/></g>
<g><path style="opacity:1" fill="#9d1a1c" d="M 167.5,51.5 C 170.187,51.3359 172.854,51.5026 175.5,52C 176.91,53.3717 178.577,54.205 180.5,54.5C 180.5,55.1667 180.5,55.8333 180.5,56.5C 178.745,55.9278 177.078,55.0945 175.5,54C 173.5,53.3333 171.5,53.3333 169.5,54C 167.5,56 165.5,58 163.5,60C 160.495,60.533 157.828,61.6996 155.5,63.5C 156.833,61.8333 158.167,60.1667 159.5,58.5C 162.764,56.9059 165.431,54.5725 167.5,51.5 Z"/></g>
<g><path style="opacity:1" fill="#eee1e2" d="M 57.5,50.5 C 58.1667,50.5 58.8333,50.5 59.5,50.5C 61.9686,51.3171 64.6353,51.8171 67.5,52C 67.1667,52.3333 66.8333,52.6667 66.5,53C 67.7814,55.4275 68.7814,57.9275 69.5,60.5C 73.2604,59.7736 75.927,61.1069 77.5,64.5C 75.4352,64.4828 73.4352,64.1495 71.5,63.5C 69.5956,63.2624 68.2623,62.2624 67.5,60.5C 66.4154,58.4131 64.7488,57.0798 62.5,56.5C 61.4154,54.4131 59.7488,53.0798 57.5,52.5C 57.5,51.8333 57.5,51.1667 57.5,50.5 Z"/></g>
<g><path style="opacity:1" fill="#c0ccd3" d="M 89.5,50.5 C 114.833,50.5 140.167,50.5 165.5,50.5C 165.5,50.8333 165.5,51.1667 165.5,51.5C 163.5,51.8333 161.5,52.1667 159.5,52.5C 159.5,53.8333 159.5,55.1667 159.5,56.5C 158.178,56.33 157.011,56.6634 156,57.5C 154.562,58.9003 153.729,60.567 153.5,62.5C 153.5,62.8333 153.5,63.1667 153.5,63.5C 152.508,63.3284 151.842,63.6618 151.5,64.5C 148.87,65.4278 146.204,66.4278 143.5,67.5C 137.236,73.4614 130.903,79.128 124.5,84.5C 123.717,82.6568 123.05,80.6568 122.5,78.5C 125.167,76.5 125.167,74.5 122.5,72.5C 124.045,69.8026 123.379,67.8026 120.5,66.5C 119.759,63.4064 118.759,60.4064 117.5,57.5C 117.919,56.3279 118.585,55.3279 119.5,54.5C 121.783,53.4572 123.783,52.7906 125.5,52.5C 123.604,51.5344 121.604,51.2011 119.5,51.5C 109.319,51.8274 99.3194,51.494 89.5,50.5 Z"/></g>
<g><path style="opacity:1" fill="#aa1715" d="M 180.5,56.5 C 181.906,56.9731 182.573,57.9731 182.5,59.5C 182.663,61.8568 182.497,64.1902 182,66.5C 176.946,70.7275 172.113,75.0608 167.5,79.5C 166.127,79.3433 164.793,79.51 163.5,80C 162.295,81.3756 160.962,82.5423 159.5,83.5C 160.038,81.8828 160.371,80.2161 160.5,78.5C 161.5,78.5 162.5,78.5 163.5,78.5C 164.363,76.1046 164.363,73.7713 163.5,71.5C 160.334,67.9235 156.334,66.5902 151.5,67.5C 152.167,66.1667 152.833,64.8333 153.5,63.5C 154.167,63.5 154.833,63.5 155.5,63.5C 157.828,61.6996 160.495,60.533 163.5,60C 165.5,58 167.5,56 169.5,54C 171.5,53.3333 173.5,53.3333 175.5,54C 177.078,55.0945 178.745,55.9278 180.5,56.5 Z"/></g>
<g><path style="opacity:1" fill="#af1517" d="M 74.5,67.5 C 74.8333,67.5 75.1667,67.5 75.5,67.5C 76.9108,69.914 78.9108,71.5806 81.5,72.5C 82.1667,73.5 82.8333,74.5 83.5,75.5C 83.5,76.1667 83.5,76.8333 83.5,77.5C 79.6249,76.1244 76.4582,73.7911 74,70.5C 73.6924,71.3081 73.1924,71.9747 72.5,72.5C 70.4701,66.9293 67.1367,66.096 62.5,70C 60.6469,72.0398 59.3136,74.3731 58.5,77C 60.7221,79.2379 63.0554,81.0713 65.5,82.5C 63.9582,81.6993 62.2915,81.366 60.5,81.5C 59.3478,80.375 58.3478,80.375 57.5,81.5C 55.5159,96.4636 54.8493,111.797 55.5,127.5C 54.1203,137.034 52.7869,146.701 51.5,156.5C 51.1667,156.5 50.8333,156.5 50.5,156.5C 49.1679,155.17 48.3345,153.503 48,151.5C 42.8055,149.892 42.3055,147.392 46.5,144C 47.448,143.517 48.448,143.351 49.5,143.5C 49.5,140.833 49.5,138.167 49.5,135.5C 47.8008,135.66 46.1341,135.494 44.5,135C 43.2978,116.081 43.2978,97.0811 44.5,78C 42.6079,72.4576 41.9413,66.9576 42.5,61.5C 42.5,59.5 42.5,57.5 42.5,55.5C 46.6822,53.769 51.0156,53.269 55.5,54C 59.2518,56.5413 62.5852,59.5413 65.5,63C 68.8764,64.0498 71.8764,65.5498 74.5,67.5 Z"/></g>
<g><path style="opacity:1" fill="#a65b5e" d="M 165.5,50.5 C 166.167,50.5 166.833,50.5 167.5,50.5C 167.5,50.8333 167.5,51.1667 167.5,51.5C 165.431,54.5725 162.764,56.9059 159.5,58.5C 161.5,56.1667 163.5,53.8333 165.5,51.5C 165.5,51.1667 165.5,50.8333 165.5,50.5 Z"/></g>
<g><path style="opacity:1" fill="#dc9a9f" d="M 62.5,56.5 C 64.7488,57.0798 66.4154,58.4131 67.5,60.5C 65.2512,59.9202 63.5846,58.5869 62.5,56.5 Z"/></g>
<g><path style="opacity:1" fill="#a75457" d="M 159.5,58.5 C 158.167,60.1667 156.833,61.8333 155.5,63.5C 154.833,63.5 154.167,63.5 153.5,63.5C 153.5,63.1667 153.5,62.8333 153.5,62.5C 155.246,60.7484 157.246,59.4151 159.5,58.5 Z"/></g>
<g><path style="opacity:1" fill="#4a1314" d="M 180.5,54.5 C 182.113,54.9443 183.28,55.9443 184,57.5C 184.831,88.3361 184.664,119.003 183.5,149.5C 183.5,122.167 183.5,94.8333 183.5,67.5C 183.806,64.6146 183.473,61.9479 182.5,59.5C 182.573,57.9731 181.906,56.9731 180.5,56.5C 180.5,55.8333 180.5,55.1667 180.5,54.5 Z"/></g>
<g><path style="opacity:1" fill="#d4dde4" d="M 59.5,50.5 C 69.5,50.5 79.5,50.5 89.5,50.5C 99.3194,51.494 109.319,51.8274 119.5,51.5C 114.272,51.9245 109.939,53.2579 106.5,55.5C 106.338,57.5273 106.505,59.5273 107,61.5C 109.989,65.9684 112.656,70.6351 115,75.5C 115.818,78.2272 115.652,80.8938 114.5,83.5C 112.519,84.1054 112.185,85.1054 113.5,86.5C 111.995,87.8415 111.328,89.5082 111.5,91.5C 109.315,91.2964 107.315,90.6298 105.5,89.5C 102.487,86.6644 99.154,84.3311 95.5,82.5C 93.9142,79.4614 91.5809,77.2948 88.5,76C 85.1358,71.6994 81.4691,67.866 77.5,64.5C 75.927,61.1069 73.2604,59.7736 69.5,60.5C 68.7814,57.9275 67.7814,55.4275 66.5,53C 66.8333,52.6667 67.1667,52.3333 67.5,52C 64.6353,51.8171 61.9686,51.3171 59.5,50.5 Z"/></g>
<g><path style="opacity:1" fill="#a94e4f" d="M 153.5,63.5 C 152.833,64.8333 152.167,66.1667 151.5,67.5C 149.079,69.2378 146.412,70.5711 143.5,71.5C 146.167,69.1667 148.833,66.8333 151.5,64.5C 151.842,63.6618 152.508,63.3284 153.5,63.5 Z"/></g>
<g><path style="opacity:1" fill="#a3211f" d="M 151.5,67.5 C 149.684,70.6516 147.017,72.6516 143.5,73.5C 143.5,72.8333 143.5,72.1667 143.5,71.5C 146.412,70.5711 149.079,69.2378 151.5,67.5 Z"/></g>
<g><path style="opacity:1" fill="#e4908f" d="M 75.5,67.5 C 78.0892,68.4194 80.0892,70.086 81.5,72.5C 78.9108,71.5806 76.9108,69.914 75.5,67.5 Z"/></g>
<g><path style="opacity:1" fill="#c31c1b" d="M 83.5,77.5 C 87.4819,80.1518 91.1486,83.1518 94.5,86.5C 91.2638,87.8386 88.7638,86.8386 87,83.5C 86.6667,83.8333 86.3333,84.1667 86,84.5C 84.883,83.0506 84.2163,81.3839 84,79.5C 81.2533,76.9659 78.5867,76.9659 76,79.5C 74.9745,76.3072 72.8078,74.9738 69.5,75.5C 68.7197,78.7091 68.8863,81.7091 70,84.5C 72.1896,86.3884 74.0229,88.5551 75.5,91C 76.7932,91.49 78.1266,91.6567 79.5,91.5C 79.5,92.8333 79.5,94.1667 79.5,95.5C 77.0672,95.7271 75.4006,94.7271 74.5,92.5C 72.1831,88.5182 69.1831,85.1849 65.5,82.5C 63.0554,81.0713 60.7221,79.2379 58.5,77C 59.3136,74.3731 60.6469,72.0398 62.5,70C 67.1367,66.096 70.4701,66.9293 72.5,72.5C 73.1924,71.9747 73.6924,71.3081 74,70.5C 76.4582,73.7911 79.6249,76.1244 83.5,77.5 Z"/></g>
<g><path style="opacity:1" fill="#bc1717" d="M 151.5,67.5 C 156.334,66.5902 160.334,67.9235 163.5,71.5C 164.363,73.7713 164.363,76.1046 163.5,78.5C 162.5,78.5 161.5,78.5 160.5,78.5C 160.371,80.2161 160.038,81.8828 159.5,83.5C 159.5,83.8333 159.5,84.1667 159.5,84.5C 158.5,84.5 157.5,84.5 156.5,84.5C 156.514,82.2488 156.681,79.9154 157,77.5C 153.861,76.1941 152.028,73.8607 151.5,70.5C 148.235,72.6905 144.901,74.6905 141.5,76.5C 142.167,75.5 142.833,74.5 143.5,73.5C 147.017,72.6516 149.684,70.6516 151.5,67.5 Z"/></g>
<g><path style="opacity:1" fill="#e79698" d="M 81.5,72.5 C 83.7488,73.0798 85.4154,74.4131 86.5,76.5C 85.391,76.4431 84.391,76.1098 83.5,75.5C 82.8333,74.5 82.1667,73.5 81.5,72.5 Z"/></g>
<g><path style="opacity:1" fill="#e0bbc0" d="M 151.5,64.5 C 148.833,66.8333 146.167,69.1667 143.5,71.5C 139.834,73.5044 136.834,76.1711 134.5,79.5C 132.142,81.5293 129.808,83.5293 127.5,85.5C 124.236,87.0941 121.569,89.4275 119.5,92.5C 117.938,92.7329 116.605,93.3995 115.5,94.5C 115.733,92.9382 116.4,91.6049 117.5,90.5C 119.833,88.5 122.167,86.5 124.5,84.5C 130.903,79.128 137.236,73.4614 143.5,67.5C 146.204,66.4278 148.87,65.4278 151.5,64.5 Z"/></g>
<g><path style="opacity:1" fill="#c76f74" d="M 143.5,71.5 C 143.5,72.1667 143.5,72.8333 143.5,73.5C 140.518,75.4742 137.518,77.4742 134.5,79.5C 136.834,76.1711 139.834,73.5044 143.5,71.5 Z"/></g>
<g><path style="opacity:1" fill="#d22220" d="M 94.5,86.5 C 96.2163,88.0248 98.2163,89.0248 100.5,89.5C 101.5,89.8333 102.167,90.5 102.5,91.5C 108.348,101.548 114.681,101.881 121.5,92.5C 124.225,91.287 126.559,89.4536 128.5,87C 129.448,86.5172 130.448,86.3505 131.5,86.5C 131.003,90.1623 132.169,93.1623 135,95.5C 135.651,93.765 135.485,92.0983 134.5,90.5C 135.242,89.7132 136.075,89.0465 137,88.5C 138.667,89.8333 140.333,89.8333 142,88.5C 143.11,90.0368 144.61,90.7035 146.5,90.5C 145.241,91.9791 144.241,93.6458 143.5,95.5C 143.167,95.5 142.833,95.5 142.5,95.5C 136.899,99.1347 131.899,103.468 127.5,108.5C 126.5,108.5 125.5,108.5 124.5,108.5C 126.49,104.398 125.49,102.898 121.5,104C 122.126,103.25 122.626,102.416 123,101.5C 124.049,102.517 125.216,102.684 126.5,102C 124.939,101.059 123.605,99.8924 122.5,98.5C 124.765,97.3526 127.098,97.1859 129.5,98C 130.135,102.119 131.802,102.453 134.5,99C 133.107,97.8289 132.273,96.3289 132,94.5C 131.196,93.1955 130.029,92.5288 128.5,92.5C 121.914,95.7581 115.58,99.4248 109.5,103.5C 106.617,97.9378 102.284,94.2712 96.5,92.5C 92.4423,92.8404 88.4423,93.5071 84.5,94.5C 89.3437,95.8693 94.0104,96.8693 98.5,97.5C 98.8333,98.3333 99.1667,99.1667 99.5,100C 98.5819,102.086 97.9153,104.253 97.5,106.5C 94.9616,105.957 92.6282,104.957 90.5,103.5C 89.8333,103.5 89.1667,103.5 88.5,103.5C 86.423,99.7542 83.423,97.0875 79.5,95.5C 79.5,94.1667 79.5,92.8333 79.5,91.5C 78.1266,91.6567 76.7932,91.49 75.5,91C 74.0229,88.5551 72.1896,86.3884 70,84.5C 68.8863,81.7091 68.7197,78.7091 69.5,75.5C 72.8078,74.9738 74.9745,76.3072 76,79.5C 78.5867,76.9659 81.2533,76.9659 84,79.5C 84.2163,81.3839 84.883,83.0506 86,84.5C 86.3333,84.1667 86.6667,83.8333 87,83.5C 88.7638,86.8386 91.2638,87.8386 94.5,86.5 Z"/></g>
<g><path style="opacity:1" fill="#f4d4d7" d="M 71.5,63.5 C 73.4352,64.1495 75.4352,64.4828 77.5,64.5C 81.4691,67.866 85.1358,71.6994 88.5,76C 91.5809,77.2948 93.9142,79.4614 95.5,82.5C 94.8333,82.5 94.1667,82.5 93.5,82.5C 92.7377,80.7376 91.4044,79.7376 89.5,79.5C 87.8564,79.1898 86.8564,78.1898 86.5,76.5C 85.4154,74.4131 83.7488,73.0798 81.5,72.5C 80.0892,70.086 78.0892,68.4194 75.5,67.5C 75.1667,67.5 74.8333,67.5 74.5,67.5C 73.5,66.1667 72.5,64.8333 71.5,63.5 Z"/></g>
<g><path style="opacity:1" fill="#af3433" d="M 83.5,75.5 C 84.391,76.1098 85.391,76.4431 86.5,76.5C 86.8564,78.1898 87.8564,79.1898 89.5,79.5C 90.2623,81.2624 91.5956,82.2624 93.5,82.5C 95.0905,84.6326 97.0905,86.2993 99.5,87.5C 99.8333,88.1667 100.167,88.8333 100.5,89.5C 98.2163,89.0248 96.2163,88.0248 94.5,86.5C 91.1486,83.1518 87.4819,80.1518 83.5,77.5C 83.5,76.8333 83.5,76.1667 83.5,75.5 Z"/></g>
<g><path style="opacity:1" fill="#8f171b" d="M 42.5,55.5 C 42.5,57.5 42.5,59.5 42.5,61.5C 41.5164,90.1226 41.1831,118.789 41.5,147.5C 40.5019,118.005 40.1686,88.338 40.5,58.5C 40.9321,57.2905 41.5987,56.2905 42.5,55.5 Z"/></g>
<g><path style="opacity:1" fill="#db888c" d="M 89.5,79.5 C 91.4044,79.7376 92.7377,80.7376 93.5,82.5C 91.5956,82.2624 90.2623,81.2624 89.5,79.5 Z"/></g>
<g><path style="opacity:1" fill="#79100d" d="M 182.5,59.5 C 183.473,61.9479 183.806,64.6146 183.5,67.5C 180.463,69.9701 178.963,73.3035 179,77.5C 178.667,77.8333 178.333,78.1667 178,78.5C 176.529,76.0978 175.029,76.2645 173.5,79C 174.428,79.3879 175.095,80.0546 175.5,81C 174.704,82.0921 174.037,83.2588 173.5,84.5C 174.167,86.1667 174.833,87.8333 175.5,89.5C 175.444,90.737 174.944,91.737 174,92.5C 173.333,109.5 173.333,126.5 174,143.5C 175.328,138.878 176.161,139.545 176.5,145.5C 174.549,145.227 173.049,145.893 172,147.5C 171.667,146.5 171.333,145.5 171,144.5C 170.815,123.981 169.981,103.648 168.5,83.5C 167.833,83.5 167.5,83.1667 167.5,82.5C 167.5,81.5 167.5,80.5 167.5,79.5C 172.113,75.0608 176.946,70.7275 182,66.5C 182.497,64.1902 182.663,61.8568 182.5,59.5 Z"/></g>
<g><path style="opacity:1" fill="#993a37" d="M 167.5,79.5 C 167.5,80.5 167.5,81.5 167.5,82.5C 167.167,82.5 166.833,82.5 166.5,82.5C 165.749,81.4265 164.749,81.2599 163.5,82C 162.295,83.3756 160.962,84.5423 159.5,85.5C 159.5,85.1667 159.5,84.8333 159.5,84.5C 159.5,84.1667 159.5,83.8333 159.5,83.5C 160.962,82.5423 162.295,81.3756 163.5,80C 164.793,79.51 166.127,79.3433 167.5,79.5 Z"/></g>
<g><path style="opacity:1" fill="#ac2c2b" d="M 60.5,81.5 C 62.2915,81.366 63.9582,81.6993 65.5,82.5C 69.1831,85.1849 72.1831,88.5182 74.5,92.5C 73.391,92.4431 72.391,92.1098 71.5,91.5C 71.1667,90.8333 70.8333,90.1667 70.5,89.5C 69.4154,87.4131 67.7488,86.0798 65.5,85.5C 63.6115,84.396 61.9448,83.0627 60.5,81.5 Z"/></g>
<g><path style="opacity:1" fill="#cf1d19" d="M 156.5,84.5 C 153.251,86.4656 149.918,88.4656 146.5,90.5C 144.61,90.7035 143.11,90.0368 142,88.5C 140.333,89.8333 138.667,89.8333 137,88.5C 136.075,89.0465 135.242,89.7132 134.5,90.5C 135.485,92.0983 135.651,93.765 135,95.5C 132.169,93.1623 131.003,90.1623 131.5,86.5C 133.019,83.064 135.685,81.064 139.5,80.5C 140.705,79.4231 141.372,78.0898 141.5,76.5C 144.901,74.6905 148.235,72.6905 151.5,70.5C 152.028,73.8607 153.861,76.1941 157,77.5C 156.681,79.9154 156.514,82.2488 156.5,84.5 Z"/></g>
<g><path style="opacity:1" fill="#b72827" d="M 143.5,73.5 C 142.833,74.5 142.167,75.5 141.5,76.5C 141.372,78.0898 140.705,79.4231 139.5,80.5C 135.685,81.064 133.019,83.064 131.5,86.5C 130.448,86.3505 129.448,86.5172 128.5,87C 126.559,89.4536 124.225,91.287 121.5,92.5C 123.5,90.1667 125.5,87.8333 127.5,85.5C 129.808,83.5293 132.142,81.5293 134.5,79.5C 137.518,77.4742 140.518,75.4742 143.5,73.5 Z"/></g>
<g><path style="opacity:1" fill="#bf6061" d="M 65.5,85.5 C 67.7488,86.0798 69.4154,87.4131 70.5,89.5C 69.391,89.4431 68.391,89.1098 67.5,88.5C 66.8333,87.5 66.1667,86.5 65.5,85.5 Z"/></g>
<g><path style="opacity:1" fill="#e68f92" d="M 99.5,87.5 C 102.764,89.0941 105.431,91.4275 107.5,94.5C 105.589,93.925 103.922,92.925 102.5,91.5C 102.167,90.5 101.5,89.8333 100.5,89.5C 100.167,88.8333 99.8333,88.1667 99.5,87.5 Z"/></g>
<g><path style="opacity:1" fill="#f6c2c4" d="M 93.5,82.5 C 94.1667,82.5 94.8333,82.5 95.5,82.5C 99.154,84.3311 102.487,86.6644 105.5,89.5C 107.374,93.314 110.374,95.314 114.5,95.5C 114.5,95.8333 114.5,96.1667 114.5,96.5C 111.429,98.2529 109.096,97.5862 107.5,94.5C 105.431,91.4275 102.764,89.0941 99.5,87.5C 97.0905,86.2993 95.0905,84.6326 93.5,82.5 Z"/></g>
<g><path style="opacity:1" fill="#b72325" d="M 156.5,84.5 C 157.5,84.5 158.5,84.5 159.5,84.5C 159.5,84.8333 159.5,85.1667 159.5,85.5C 153.677,87.5795 148.677,90.9129 144.5,95.5C 144.167,95.5 143.833,95.5 143.5,95.5C 144.241,93.6458 145.241,91.9791 146.5,90.5C 149.918,88.4656 153.251,86.4656 156.5,84.5 Z"/></g>
<g><path style="opacity:1" fill="#c05858" d="M 127.5,85.5 C 125.5,87.8333 123.5,90.1667 121.5,92.5C 120.833,92.5 120.167,92.5 119.5,92.5C 121.569,89.4275 124.236,87.0941 127.5,85.5 Z"/></g>
<g><path style="opacity:1" fill="#f0e5ed" d="M 67.5,88.5 C 68.391,89.1098 69.391,89.4431 70.5,89.5C 70.8333,90.1667 71.1667,90.8333 71.5,91.5C 72.9881,95.3445 75.8215,97.6778 80,98.5C 80.4828,99.448 80.6495,100.448 80.5,101.5C 76.4064,101.407 73.7397,99.4068 72.5,95.5C 70,94.5 67.5,93.5 65,92.5C 63.6739,92.7549 62.6739,93.4216 62,94.5C 61.8195,97.6946 61.3195,100.695 60.5,103.5C 59.8333,111.5 59.1667,119.5 58.5,127.5C 58.1674,112.818 58.5007,98.1515 59.5,83.5C 61.6471,85.977 64.3137,87.6437 67.5,88.5 Z"/></g>
<g><path style="opacity:1" fill="#e0d0d1" d="M 105.5,89.5 C 107.315,90.6298 109.315,91.2964 111.5,91.5C 113.435,90.8505 115.435,90.5172 117.5,90.5C 116.4,91.6049 115.733,92.9382 115.5,94.5C 115.5,95.1667 115.167,95.5 114.5,95.5C 110.374,95.314 107.374,93.314 105.5,89.5 Z"/></g>
<g><path style="opacity:1" fill="#9e3839" d="M 159.5,85.5 C 158.833,86.1667 158.167,86.8333 157.5,87.5C 153.69,89.2515 150.357,91.7515 147.5,95C 146.552,95.4828 145.552,95.6495 144.5,95.5C 148.677,90.9129 153.677,87.5795 159.5,85.5 Z"/></g>
<g><path style="opacity:1" fill="#e5b8ba" d="M 60.5,81.5 C 61.9448,83.0627 63.6115,84.396 65.5,85.5C 66.1667,86.5 66.8333,87.5 67.5,88.5C 64.3137,87.6437 61.6471,85.977 59.5,83.5C 58.5007,98.1515 58.1674,112.818 58.5,127.5C 58.5,136.5 58.5,145.5 58.5,154.5C 58.5,155.5 58.5,156.5 58.5,157.5C 58.1667,157.5 57.8333,157.5 57.5,157.5C 57.5,132.167 57.5,106.833 57.5,81.5C 58.3478,80.375 59.3478,80.375 60.5,81.5 Z"/></g>
<g><path style="opacity:1" fill="#bf3030" d="M 102.5,91.5 C 103.922,92.925 105.589,93.925 107.5,94.5C 109.096,97.5862 111.429,98.2529 114.5,96.5C 116.749,95.9202 118.415,94.5869 119.5,92.5C 120.167,92.5 120.833,92.5 121.5,92.5C 114.681,101.881 108.348,101.548 102.5,91.5 Z"/></g>
<g><path style="opacity:1" fill="#b33b36" d="M 79.5,95.5 C 83.423,97.0875 86.423,99.7542 88.5,103.5C 84.8739,101.541 81.8739,98.874 79.5,95.5 Z"/></g>
<g><path style="opacity:1" fill="#9b676b" d="M 157.5,87.5 C 151.03,93.8005 144.363,99.9672 137.5,106C 134.26,108.091 130.926,109.924 127.5,111.5C 130.039,108.81 133.039,106.643 136.5,105C 139.724,102.278 142.391,99.1116 144.5,95.5C 145.552,95.6495 146.552,95.4828 147.5,95C 150.357,91.7515 153.69,89.2515 157.5,87.5 Z"/></g>
<g><path style="opacity:1" fill="#f6c5c8" d="M 71.5,91.5 C 72.391,92.1098 73.391,92.4431 74.5,92.5C 75.4006,94.7271 77.0672,95.7271 79.5,95.5C 81.8739,98.874 84.8739,101.541 88.5,103.5C 88.8333,104.167 89.1667,104.833 89.5,105.5C 86.0955,104.962 83.0955,103.629 80.5,101.5C 80.6495,100.448 80.4828,99.448 80,98.5C 75.8215,97.6778 72.9881,95.3445 71.5,91.5 Z"/></g>
<g><path style="opacity:1" fill="#de2823" d="M 124.5,108.5 C 119.996,116.267 113.662,118.601 105.5,115.5C 104.069,113.811 103.236,111.811 103,109.5C 101.124,108.391 99.2905,107.391 97.5,106.5C 97.9153,104.253 98.5819,102.086 99.5,100C 99.1667,99.1667 98.8333,98.3333 98.5,97.5C 94.0104,96.8693 89.3437,95.8693 84.5,94.5C 88.4423,93.5071 92.4423,92.8404 96.5,92.5C 102.284,94.2712 106.617,97.9378 109.5,103.5C 115.58,99.4248 121.914,95.7581 128.5,92.5C 130.029,92.5288 131.196,93.1955 132,94.5C 132.273,96.3289 133.107,97.8289 134.5,99C 131.802,102.453 130.135,102.119 129.5,98C 127.098,97.1859 124.765,97.3526 122.5,98.5C 123.605,99.8924 124.939,101.059 126.5,102C 125.216,102.684 124.049,102.517 123,101.5C 122.626,102.416 122.126,103.25 121.5,104C 125.49,102.898 126.49,104.398 124.5,108.5 Z"/></g>
<g><path style="opacity:1" fill="#c7575a" d="M 119.5,92.5 C 118.415,94.5869 116.749,95.9202 114.5,96.5C 114.5,96.1667 114.5,95.8333 114.5,95.5C 115.167,95.5 115.5,95.1667 115.5,94.5C 116.605,93.3995 117.938,92.7329 119.5,92.5 Z"/></g>
<g><path style="opacity:1" fill="#c15756" d="M 88.5,103.5 C 89.1667,103.5 89.8333,103.5 90.5,103.5C 91.8333,105.167 93.1667,106.833 94.5,108.5C 92.5887,107.925 90.922,106.925 89.5,105.5C 89.1667,104.833 88.8333,104.167 88.5,103.5 Z"/></g>
<g><path style="opacity:1" fill="#b5312b" d="M 142.5,95.5 C 138.993,101.464 133.993,105.798 127.5,108.5C 131.899,103.468 136.899,99.1347 142.5,95.5 Z"/></g>
<g><path style="opacity:1" fill="#c72e2c" d="M 90.5,103.5 C 92.6282,104.957 94.9616,105.957 97.5,106.5C 99.2905,107.391 101.124,108.391 103,109.5C 103.236,111.811 104.069,113.811 105.5,115.5C 104.833,115.5 104.167,115.5 103.5,115.5C 102.089,113.086 100.089,111.419 97.5,110.5C 95.9731,110.573 94.9731,109.906 94.5,108.5C 93.1667,106.833 91.8333,105.167 90.5,103.5 Z"/></g>
<g><path style="opacity:1" fill="#efc3c2" d="M 89.5,105.5 C 90.922,106.925 92.5887,107.925 94.5,108.5C 94.9731,109.906 95.9731,110.573 97.5,110.5C 98.1667,111.5 98.8333,112.5 99.5,113.5C 95.2694,112.78 91.9361,110.78 89.5,107.5C 89.5,106.833 89.5,106.167 89.5,105.5 Z"/></g>
<g><path style="opacity:1" fill="#d1dbe2" d="M 89.5,107.5 C 91.9361,110.78 95.2694,112.78 99.5,113.5C 101.915,116.616 104.581,119.616 107.5,122.5C 107.167,122.5 106.833,122.5 106.5,122.5C 104.071,120.286 101.404,119.953 98.5,121.5C 96.1617,122.337 93.8284,123.17 91.5,124C 91.8333,124.333 92.1667,124.667 92.5,125C 89.7772,127.59 86.9439,128.09 84,126.5C 82.1997,128.145 80.1997,129.478 78,130.5C 77.5439,129.256 78.0439,128.423 79.5,128C 78.5,127.333 77.5,127.333 76.5,128C 75.7362,130.069 75.2362,132.236 75,134.5C 73.9887,135.337 72.8221,135.67 71.5,135.5C 71.5,134.167 71.5,132.833 71.5,131.5C 68.9512,131.387 66.6179,132.054 64.5,133.5C 63.5713,132.311 63.238,130.978 63.5,129.5C 63.3354,127.173 62.6687,125.007 61.5,123C 62.1094,121.052 62.776,119.218 63.5,117.5C 63.5,119.167 63.5,120.833 63.5,122.5C 67.4525,122.027 71.1192,120.694 74.5,118.5C 74.9407,113.923 76.1074,109.59 78,105.5C 80.8822,110.027 84.5489,113.027 89,114.5C 89.5,114.167 90,113.833 90.5,113.5C 89.8333,112.5 89.1667,111.5 88.5,110.5C 89.1272,109.583 89.4606,108.583 89.5,107.5 Z"/></g>
<g><path style="opacity:1" fill="#bb5351" d="M 97.5,110.5 C 100.089,111.419 102.089,113.086 103.5,115.5C 101.938,115.267 100.605,114.6 99.5,113.5C 98.8333,112.5 98.1667,111.5 97.5,110.5 Z"/></g>
<g><path style="opacity:1" fill="#81595f" d="M 166.5,82.5 C 166.5,107.833 166.5,133.167 166.5,158.5C 166.167,158.5 165.833,158.5 165.5,158.5C 165.5,157.833 165.5,157.167 165.5,156.5C 165.5,132.5 165.5,108.5 165.5,84.5C 163.067,84.2729 161.401,85.2729 160.5,87.5C 159.5,87.5 158.5,87.5 157.5,87.5C 158.167,86.8333 158.833,86.1667 159.5,85.5C 160.962,84.5423 162.295,83.3756 163.5,82C 164.749,81.2599 165.749,81.4265 166.5,82.5 Z"/></g>
<g><path style="opacity:1" fill="#a94b4a" d="M 142.5,95.5 C 142.833,95.5 143.167,95.5 143.5,95.5C 143.833,95.5 144.167,95.5 144.5,95.5C 142.391,99.1116 139.724,102.278 136.5,105C 133.039,106.643 130.039,108.81 127.5,111.5C 124.833,113.167 122.167,114.833 119.5,116.5C 121.86,113.473 124.527,110.806 127.5,108.5C 133.993,105.798 138.993,101.464 142.5,95.5 Z"/></g>
<g><path style="opacity:1" fill="#78797f" d="M 157.5,87.5 C 158.5,87.5 159.5,87.5 160.5,87.5C 161.496,87.4142 162.329,87.7476 163,88.5C 163.333,89.8333 163.667,91.1667 164,92.5C 164.168,114.004 164.668,135.337 165.5,156.5C 165.5,157.167 165.5,157.833 165.5,158.5C 164.833,158.5 164.167,158.5 163.5,158.5C 163.443,157.391 163.11,156.391 162.5,155.5C 163.497,138.341 163.83,121.008 163.5,103.5C 162.5,103.5 161.5,103.5 160.5,103.5C 160.083,107.835 159.583,112.168 159,116.5C 155.903,117.873 153.737,116.873 152.5,113.5C 151.507,118.12 151.173,122.786 151.5,127.5C 156.833,127.833 156.833,128.167 151.5,128.5C 152.449,130.737 153.116,133.071 153.5,135.5C 154.675,135.281 155.675,135.614 156.5,136.5C 155.846,140.945 154.846,145.278 153.5,149.5C 150.95,148.943 148.95,147.61 147.5,145.5C 147.414,143.606 147.081,141.606 146.5,139.5C 144.774,137.97 142.774,136.97 140.5,136.5C 138.625,131.058 138.625,125.725 140.5,120.5C 138.658,113.992 134.824,112.325 129,115.5C 126.709,114.689 124.875,115.523 123.5,118C 124.167,118.333 124.833,118.667 125.5,119C 123.951,120.214 122.785,121.714 122,123.5C 120.052,124.109 118.218,124.776 116.5,125.5C 114.442,124.067 112.108,123.4 109.5,123.5C 109.5,123.167 109.5,122.833 109.5,122.5C 113.779,123.507 116.779,122.174 118.5,118.5C 122.363,117.306 125.363,114.973 127.5,111.5C 130.926,109.924 134.26,108.091 137.5,106C 144.363,99.9672 151.03,93.8005 157.5,87.5 Z"/></g>
<g><path style="opacity:1" fill="#eab3b7" d="M 99.5,113.5 C 100.605,114.6 101.938,115.267 103.5,115.5C 104.585,117.587 106.251,118.92 108.5,119.5C 108.833,120.167 109.167,120.833 109.5,121.5C 109.5,121.833 109.5,122.167 109.5,122.5C 108.833,122.5 108.167,122.5 107.5,122.5C 104.581,119.616 101.915,116.616 99.5,113.5 Z"/></g>
<g><path style="opacity:1" fill="#a56f72" d="M 127.5,111.5 C 125.363,114.973 122.363,117.306 118.5,118.5C 118.833,117.833 119.167,117.167 119.5,116.5C 122.167,114.833 124.833,113.167 127.5,111.5 Z"/></g>
<g><path style="opacity:1" fill="#dae2ea" d="M 80.5,101.5 C 83.0955,103.629 86.0955,104.962 89.5,105.5C 89.5,106.167 89.5,106.833 89.5,107.5C 89.4606,108.583 89.1272,109.583 88.5,110.5C 89.1667,111.5 89.8333,112.5 90.5,113.5C 90,113.833 89.5,114.167 89,114.5C 84.5489,113.027 80.8822,110.027 78,105.5C 76.1074,109.59 74.9407,113.923 74.5,118.5C 71.1192,120.694 67.4525,122.027 63.5,122.5C 63.5,120.833 63.5,119.167 63.5,117.5C 62.5684,112.866 61.5684,108.199 60.5,103.5C 61.3195,100.695 61.8195,97.6946 62,94.5C 62.6739,93.4216 63.6739,92.7549 65,92.5C 67.5,93.5 70,94.5 72.5,95.5C 73.7397,99.4068 76.4064,101.407 80.5,101.5 Z"/></g>
<g><path style="opacity:1" fill="#c85a5f" d="M 103.5,115.5 C 104.167,115.5 104.833,115.5 105.5,115.5C 106.5,116.833 107.5,118.167 108.5,119.5C 106.251,118.92 104.585,117.587 103.5,115.5 Z"/></g>
<g><path style="opacity:1" fill="#c62e2c" d="M 124.5,108.5 C 125.5,108.5 126.5,108.5 127.5,108.5C 124.527,110.806 121.86,113.473 119.5,116.5C 116.079,118.376 112.412,119.376 108.5,119.5C 107.5,118.167 106.5,116.833 105.5,115.5C 113.662,118.601 119.996,116.267 124.5,108.5 Z"/></g>
<g><path style="opacity:1" fill="#b13d42" d="M 119.5,116.5 C 119.167,117.167 118.833,117.833 118.5,118.5C 115.655,120.023 112.655,121.023 109.5,121.5C 109.167,120.833 108.833,120.167 108.5,119.5C 112.412,119.376 116.079,118.376 119.5,116.5 Z"/></g>
<g><path style="opacity:1" fill="#6f1210" d="M 183.5,67.5 C 183.5,94.8333 183.5,122.167 183.5,149.5C 183.672,150.492 183.338,151.158 182.5,151.5C 178.626,155.127 173.96,156.793 168.5,156.5C 168.5,132.167 168.5,107.833 168.5,83.5C 169.981,103.648 170.815,123.981 171,144.5C 171.333,145.5 171.667,146.5 172,147.5C 173.049,145.893 174.549,145.227 176.5,145.5C 176.161,139.545 175.328,138.878 174,143.5C 173.333,126.5 173.333,109.5 174,92.5C 174.944,91.737 175.444,90.737 175.5,89.5C 174.833,87.8333 174.167,86.1667 173.5,84.5C 174.037,83.2588 174.704,82.0921 175.5,81C 175.095,80.0546 174.428,79.3879 173.5,79C 175.029,76.2645 176.529,76.0978 178,78.5C 178.333,78.1667 178.667,77.8333 179,77.5C 178.963,73.3035 180.463,69.9701 183.5,67.5 Z"/></g>
<g><path style="opacity:1" fill="#a56c73" d="M 118.5,118.5 C 116.779,122.174 113.779,123.507 109.5,122.5C 109.5,122.167 109.5,121.833 109.5,121.5C 112.655,121.023 115.655,120.023 118.5,118.5 Z"/></g>
<g><path style="opacity:1" fill="#a41814" d="M 42.5,61.5 C 41.9413,66.9576 42.6079,72.4576 44.5,78C 43.2978,97.0811 43.2978,116.081 44.5,135C 46.1341,135.494 47.8008,135.66 49.5,135.5C 49.5,138.167 49.5,140.833 49.5,143.5C 48.448,143.351 47.448,143.517 46.5,144C 42.3055,147.392 42.8055,149.892 48,151.5C 48.3345,153.503 49.1679,155.17 50.5,156.5C 47.8915,156.6 45.5582,155.933 43.5,154.5C 42.0605,152.412 41.3939,150.079 41.5,147.5C 41.1831,118.789 41.5164,90.1226 42.5,61.5 Z"/></g>
<g><path style="opacity:1" fill="#70767d" d="M 162.5,155.5 C 161.609,154.89 160.609,154.557 159.5,154.5C 156.865,153.527 154.865,151.86 153.5,149.5C 154.846,145.278 155.846,140.945 156.5,136.5C 155.675,135.614 154.675,135.281 153.5,135.5C 153.116,133.071 152.449,130.737 151.5,128.5C 156.833,128.167 156.833,127.833 151.5,127.5C 151.173,122.786 151.507,118.12 152.5,113.5C 153.737,116.873 155.903,117.873 159,116.5C 159.583,112.168 160.083,107.835 160.5,103.5C 161.5,103.5 162.5,103.5 163.5,103.5C 163.83,121.008 163.497,138.341 162.5,155.5 Z"/></g>
<g><path style="opacity:1" fill="#601d20" d="M 166.5,82.5 C 166.833,82.5 167.167,82.5 167.5,82.5C 167.5,83.1667 167.833,83.5 168.5,83.5C 168.5,107.833 168.5,132.167 168.5,156.5C 173.96,156.793 178.626,155.127 182.5,151.5C 182.302,154.381 180.802,156.381 178,157.5C 174.224,158.394 170.39,158.728 166.5,158.5C 166.5,133.167 166.5,107.833 166.5,82.5 Z"/></g>
<g><path style="opacity:1" fill="#798185" d="M 147.5,145.5 C 146.167,144.833 144.833,144.167 143.5,143.5C 136.289,139.947 129.623,135.614 123.5,130.5C 120.883,129.214 118.55,127.547 116.5,125.5C 118.218,124.776 120.052,124.109 122,123.5C 122.785,121.714 123.951,120.214 125.5,119C 124.833,118.667 124.167,118.333 123.5,118C 124.875,115.523 126.709,114.689 129,115.5C 134.824,112.325 138.658,113.992 140.5,120.5C 138.625,125.725 138.625,131.058 140.5,136.5C 142.774,136.97 144.774,137.97 146.5,139.5C 147.081,141.606 147.414,143.606 147.5,145.5 Z"/></g>
<g><path style="opacity:1" fill="#c9d6dc" d="M 106.5,122.5 C 92.3505,132.989 77.6839,142.655 62.5,151.5C 61.7657,144.677 61.5991,137.677 62,130.5C 62.3826,129.944 62.8826,129.611 63.5,129.5C 63.238,130.978 63.5713,132.311 64.5,133.5C 66.6179,132.054 68.9512,131.387 71.5,131.5C 71.5,132.833 71.5,134.167 71.5,135.5C 72.8221,135.67 73.9887,135.337 75,134.5C 75.2362,132.236 75.7362,130.069 76.5,128C 77.5,127.333 78.5,127.333 79.5,128C 78.0439,128.423 77.5439,129.256 78,130.5C 80.1997,129.478 82.1997,128.145 84,126.5C 86.9439,128.09 89.7772,127.59 92.5,125C 92.1667,124.667 91.8333,124.333 91.5,124C 93.8284,123.17 96.1617,122.337 98.5,121.5C 101.404,119.953 104.071,120.286 106.5,122.5 Z"/></g>
<g><path style="opacity:1" fill="#857176" d="M 165.5,156.5 C 164.668,135.337 164.168,114.004 164,92.5C 163.667,91.1667 163.333,89.8333 163,88.5C 162.329,87.7476 161.496,87.4142 160.5,87.5C 161.401,85.2729 163.067,84.2729 165.5,84.5C 165.5,108.5 165.5,132.5 165.5,156.5 Z"/></g>
<g><path style="opacity:1" fill="#c2ced6" d="M 109.5,123.5 C 112.108,123.4 114.442,124.067 116.5,125.5C 118.55,127.547 120.883,129.214 123.5,130.5C 124.303,131.423 124.47,132.423 124,133.5C 121.983,133.075 120.149,133.075 118.5,133.5C 117.702,133.957 117.369,134.624 117.5,135.5C 114.318,134.174 110.985,133.674 107.5,134C 108.167,134.333 108.833,134.667 109.5,135C 107.598,135.199 106.098,136.033 105,137.5C 103.127,136.911 101.46,137.578 100,139.5C 98.9505,138.483 97.7839,138.316 96.5,139C 96.9574,139.414 97.2907,139.914 97.5,140.5C 96.1369,141.893 95.3036,143.559 95,145.5C 94.2753,146.059 93.4419,146.392 92.5,146.5C 90.1173,144.706 87.4506,143.706 84.5,143.5C 84.0571,146.624 82.3905,148.957 79.5,150.5C 79.7093,151.086 80.0426,151.586 80.5,152C 79.2341,152.309 78.0674,152.809 77,153.5C 76.0862,152.346 75.2529,152.513 74.5,154C 74.8333,154.333 75.1667,154.667 75.5,155C 72.8333,155.333 70.1667,155.667 67.5,156C 77.1609,156.5 86.8276,156.666 96.5,156.5C 107.014,156.172 117.347,156.506 127.5,157.5C 105.327,157.831 83.327,157.497 61.5,156.5C 74.3356,147.247 87.6689,138.747 101.5,131C 104.008,128.261 106.675,125.761 109.5,123.5 Z"/></g>
<g><path style="opacity:1" fill="#983739" d="M 57.5,81.5 C 57.5,106.833 57.5,132.167 57.5,157.5C 56.8333,157.5 56.5,157.833 56.5,158.5C 52.6286,158.815 48.9619,158.482 45.5,157.5C 44.8333,156.5 44.1667,155.5 43.5,154.5C 45.5582,155.933 47.8915,156.6 50.5,156.5C 50.8333,156.5 51.1667,156.5 51.5,156.5C 52.8333,156.5 54.1667,156.5 55.5,156.5C 55.5,146.833 55.5,137.167 55.5,127.5C 54.8493,111.797 55.5159,96.4636 57.5,81.5 Z"/></g>
<g><path style="opacity:1" fill="#bfcbd7" d="M 117.5,135.5 C 119.225,135.843 119.725,136.843 119,138.5C 117.581,139.46 116.081,140.293 114.5,141C 115.624,141.249 116.624,141.749 117.5,142.5C 114.017,143.817 111.517,146.151 110,149.5C 109.667,149.167 109.333,148.833 109,148.5C 104.335,150.871 99.5015,152.704 94.5,154C 95.756,154.417 96.4226,155.25 96.5,156.5C 86.8276,156.666 77.1609,156.5 67.5,156C 70.1667,155.667 72.8333,155.333 75.5,155C 75.1667,154.667 74.8333,154.333 74.5,154C 75.2529,152.513 76.0862,152.346 77,153.5C 78.0674,152.809 79.2341,152.309 80.5,152C 80.0426,151.586 79.7093,151.086 79.5,150.5C 82.3905,148.957 84.0571,146.624 84.5,143.5C 87.4506,143.706 90.1173,144.706 92.5,146.5C 93.4419,146.392 94.2753,146.059 95,145.5C 95.3036,143.559 96.1369,141.893 97.5,140.5C 97.2907,139.914 96.9574,139.414 96.5,139C 97.7839,138.316 98.9505,138.483 100,139.5C 101.46,137.578 103.127,136.911 105,137.5C 106.098,136.033 107.598,135.199 109.5,135C 108.833,134.667 108.167,134.333 107.5,134C 110.985,133.674 114.318,134.174 117.5,135.5 Z"/></g>
<g><path style="opacity:1" fill="#d9d3dc" d="M 60.5,103.5 C 61.5684,108.199 62.5684,112.866 63.5,117.5C 62.776,119.218 62.1094,121.052 61.5,123C 62.6687,125.007 63.3354,127.173 63.5,129.5C 62.8826,129.611 62.3826,129.944 62,130.5C 61.5991,137.677 61.7657,144.677 62.5,151.5C 61.4489,152.222 60.7822,153.222 60.5,154.5C 59.8333,154.5 59.1667,154.5 58.5,154.5C 58.5,145.5 58.5,136.5 58.5,127.5C 59.1667,119.5 59.8333,111.5 60.5,103.5 Z"/></g>
<g><path style="opacity:1" fill="#641719" d="M 40.5,58.5 C 40.1686,88.338 40.5019,118.005 41.5,147.5C 41.3939,150.079 42.0605,152.412 43.5,154.5C 44.1667,155.5 44.8333,156.5 45.5,157.5C 43.9826,157.489 42.8159,156.823 42,155.5C 41.7104,153.956 41.0437,152.623 40,151.5C 39.1694,120.331 39.336,89.3306 40.5,58.5 Z"/></g>
<g><path style="opacity:1" fill="#a6181e" d="M 55.5,127.5 C 55.5,137.167 55.5,146.833 55.5,156.5C 54.1667,156.5 52.8333,156.5 51.5,156.5C 52.7869,146.701 54.1203,137.034 55.5,127.5 Z"/></g>
<g><path style="opacity:1" fill="#a2afb4" d="M 106.5,122.5 C 106.833,122.5 107.167,122.5 107.5,122.5C 108.167,122.5 108.833,122.5 109.5,122.5C 109.5,122.833 109.5,123.167 109.5,123.5C 106.675,125.761 104.008,128.261 101.5,131C 87.6689,138.747 74.3356,147.247 61.5,156.5C 61.6716,155.508 61.3382,154.842 60.5,154.5C 60.7822,153.222 61.4489,152.222 62.5,151.5C 77.6839,142.655 92.3505,132.989 106.5,122.5 Z"/></g>
<g><path style="opacity:1" fill="#b5c6d0" d="M 123.5,130.5 C 129.623,135.614 136.289,139.947 143.5,143.5C 143.954,146.253 145.621,147.92 148.5,148.5C 147.726,149.711 146.893,149.711 146,148.5C 144.909,150.718 143.743,152.884 142.5,155C 139.5,155.333 136.5,155.667 133.5,156C 142.494,156.5 151.494,156.666 160.5,156.5C 150.249,157.499 139.249,157.832 127.5,157.5C 117.347,156.506 107.014,156.172 96.5,156.5C 96.4226,155.25 95.756,154.417 94.5,154C 99.5015,152.704 104.335,150.871 109,148.5C 109.333,148.833 109.667,149.167 110,149.5C 111.517,146.151 114.017,143.817 117.5,142.5C 116.624,141.749 115.624,141.249 114.5,141C 116.081,140.293 117.581,139.46 119,138.5C 119.725,136.843 119.225,135.843 117.5,135.5C 117.369,134.624 117.702,133.957 118.5,133.5C 120.149,133.075 121.983,133.075 124,133.5C 124.47,132.423 124.303,131.423 123.5,130.5 Z"/></g>
<g><path style="opacity:1" fill="#a9b6be" d="M 143.5,143.5 C 144.833,144.167 146.167,144.833 147.5,145.5C 148.95,147.61 150.95,148.943 153.5,149.5C 154.865,151.86 156.865,153.527 159.5,154.5C 159.833,155.167 160.167,155.833 160.5,156.5C 151.494,156.666 142.494,156.5 133.5,156C 136.5,155.667 139.5,155.333 142.5,155C 143.743,152.884 144.909,150.718 146,148.5C 146.893,149.711 147.726,149.711 148.5,148.5C 145.621,147.92 143.954,146.253 143.5,143.5 Z"/></g>
<g><path style="opacity:1" fill="#8c939a" d="M 58.5,154.5 C 59.1667,154.5 59.8333,154.5 60.5,154.5C 61.3382,154.842 61.6716,155.508 61.5,156.5C 83.327,157.497 105.327,157.831 127.5,157.5C 139.249,157.832 150.249,157.499 160.5,156.5C 160.167,155.833 159.833,155.167 159.5,154.5C 160.609,154.557 161.609,154.89 162.5,155.5C 163.11,156.391 163.443,157.391 163.5,158.5C 128.329,158.832 93.3294,158.498 58.5,157.5C 58.5,156.5 58.5,155.5 58.5,154.5 Z"/></g>
<g><path style="opacity:1" fill="#282a2c" d="M 56.5,158.5 C 56.5,157.833 56.8333,157.5 57.5,157.5C 57.8333,157.5 58.1667,157.5 58.5,157.5C 93.3294,158.498 128.329,158.832 163.5,158.5C 164.167,158.5 164.833,158.5 165.5,158.5C 129.264,159.829 92.931,159.829 56.5,158.5 Z"/></g>
</svg>
