<?xml version="1.0" encoding="UTF-8"?>
<!DOCTYPE svg PUBLIC "-//W3C//DTD SVG 1.1//EN" "http://www.w3.org/Graphics/SVG/1.1/DTD/svg11.dtd">
<svg xmlns="http://www.w3.org/2000/svg" version="1.1" width="117px" height="118px" style="shape-rendering:geometricPrecision; text-rendering:geometricPrecision; image-rendering:optimizeQuality; fill-rule:evenodd; clip-rule:evenodd" xmlns:xlink="http://www.w3.org/1999/xlink">
<g><path style="opacity:1" fill="#1b1b1b" d="M -0.5,-0.5 C 38.5,-0.5 77.5,-0.5 116.5,-0.5C 116.5,38.8333 116.5,78.1667 116.5,117.5C 77.5,117.5 38.5,117.5 -0.5,117.5C -0.5,78.1667 -0.5,38.8333 -0.5,-0.5 Z"/></g>
<g><path style="opacity:1" fill="#f3f3f3" d="M 48.5,13.5 C 73.593,10.1496 91.4264,19.8162 102,42.5C 108.576,72.1841 97.4089,91.6841 68.5,101C 62.5,101.667 56.5,101.667 50.5,101C 45.597,99.6266 40.7637,98.1266 36,96.5C 30.6436,97.3713 25.3102,98.3713 20,99.5C 19.1667,99.1667 18.3333,98.8333 17.5,98.5C 18.6054,92.8688 19.6054,87.2021 20.5,81.5C 7.83293,49.5257 17.1663,26.859 48.5,13.5 Z"/></g>
<g><path style="opacity:1" fill="#1b1b1b" d="M 52.5,20.5 C 74.2573,18.7856 88.7573,28.119 96,48.5C 97.9873,78.844 83.8207,94.0107 53.5,94C 47.7044,92.8417 42.2044,91.0084 37,88.5C 33.8817,88.7896 30.8817,89.4563 28,90.5C 27.6027,86.9078 28.1027,83.4078 29.5,80C 18.1576,60.7161 20.4909,43.3828 36.5,28C 41.5424,24.6426 46.8757,22.1426 52.5,20.5 Z"/></g>
<g><path style="opacity:1" fill="#f8f8f8" d="M 43.5,36.5 C 45.7925,36.2436 47.9592,36.5769 50,37.5C 50.97,40.7436 52.1366,43.9103 53.5,47C 52.5665,49.5909 51.2331,51.9243 49.5,54C 53.0139,60.3468 58.0139,65.1802 64.5,68.5C 66.5799,66.411 68.9133,64.7444 71.5,63.5C 75.025,64.5122 78.1917,66.1789 81,68.5C 81.6579,72.0252 80.4912,74.8586 77.5,77C 65.8669,79.1227 56.0336,75.6227 48,66.5C 43.9538,61.7396 40.9538,56.4063 39,50.5C 37.4543,44.794 38.9543,40.1273 43.5,36.5 Z"/></g>
</svg>
