<?xml version="1.0" encoding="UTF-8"?>
<!DOCTYPE svg PUBLIC "-//W3C//DTD SVG 1.1//EN" "http://www.w3.org/Graphics/SVG/1.1/DTD/svg11.dtd">
<svg xmlns="http://www.w3.org/2000/svg" version="1.1" width="225px" height="225px" style="shape-rendering:geometricPrecision; text-rendering:geometricPrecision; image-rendering:optimizeQuality; fill-rule:evenodd; clip-rule:evenodd" xmlns:xlink="http://www.w3.org/1999/xlink">
<g><path style="opacity:1" fill="#f4f6f4" d="M -0.5,-0.5 C 33.5,-0.5 67.5,-0.5 101.5,-0.5C 49.7925,7.69933 16.6258,37.0327 2,87.5C 1.07473,92.6248 0.241393,97.6248 -0.5,102.5C -0.5,68.1667 -0.5,33.8333 -0.5,-0.5 Z"/></g>
<g><path style="opacity:1" fill="#0f9f16" d="M 101.5,-0.5 C 107.167,-0.5 112.833,-0.5 118.5,-0.5C 178.496,7.1606 213.83,40.8273 224.5,100.5C 224.5,106.5 224.5,112.5 224.5,118.5C 218.67,171.176 190.336,205.343 139.5,221C 133.685,222.129 128.019,223.295 122.5,224.5C 114.833,224.5 107.167,224.5 99.5,224.5C 49.6517,215.825 17.485,187.159 3,138.5C 1.61005,132.062 0.44338,125.728 -0.5,119.5C -0.5,113.833 -0.5,108.167 -0.5,102.5C 0.241393,97.6248 1.07473,92.6248 2,87.5C 16.6258,37.0327 49.7925,7.69933 101.5,-0.5 Z"/></g>
<g><path style="opacity:1" fill="#f4f6f4" d="M 118.5,-0.5 C 153.833,-0.5 189.167,-0.5 224.5,-0.5C 224.5,33.1667 224.5,66.8333 224.5,100.5C 213.83,40.8273 178.496,7.1606 118.5,-0.5 Z"/></g>
<g><path style="opacity:1" fill="#f6faf6" d="M 102.5,44.5 C 141.624,43.288 166.79,61.288 178,98.5C 181.826,136.622 165.992,162.456 130.5,176C 118.167,179.333 105.833,179.333 93.5,176C 88.8089,173.77 83.9756,171.937 79,170.5C 68.1348,173.4 57.3015,176.4 46.5,179.5C 46.1667,178.833 45.8333,178.167 45.5,177.5C 48.1924,166.728 51.1924,156.061 54.5,145.5C 36.7285,106.49 45.7285,75.3238 81.5,52C 88.337,48.7183 95.337,46.2183 102.5,44.5 Z"/></g>
<g><path style="opacity:1" fill="#119f17" d="M 99.5,56.5 C 121.327,53.6077 139.827,59.941 155,75.5C 168.368,93.6671 171.034,113.334 163,134.5C 149.838,158.932 129.338,169.432 101.5,166C 94.289,164.06 87.289,161.56 80.5,158.5C 74.1782,159.998 67.8448,161.331 61.5,162.5C 63.2282,156.364 64.8948,150.197 66.5,144C 48.9712,111.657 54.9712,84.6572 84.5,63C 89.4887,60.5144 94.4887,58.3477 99.5,56.5 Z"/></g>
<g><path style="opacity:1" fill="#f9fbf9" d="M 86.5,80.5 C 88.8568,80.3367 91.1902,80.5034 93.5,81C 96.7351,86.3583 99.4018,92.025 101.5,98C 99.8922,101.272 97.8922,104.272 95.5,107C 100.846,117.344 109.013,124.511 120,128.5C 123.112,125.302 126.445,122.302 130,119.5C 134.863,121.681 139.697,124.014 144.5,126.5C 146.323,135.531 142.656,141.031 133.5,143C 124.021,143.73 115.354,141.396 107.5,136C 94.7749,127.606 85.2749,116.439 79,102.5C 77.0467,93.5239 79.5467,86.1906 86.5,80.5 Z"/></g>
<g><path style="opacity:1" fill="#f5f6f5" d="M 224.5,118.5 C 224.5,153.833 224.5,189.167 224.5,224.5C 190.5,224.5 156.5,224.5 122.5,224.5C 128.019,223.295 133.685,222.129 139.5,221C 190.336,205.343 218.67,171.176 224.5,118.5 Z"/></g>
<g><path style="opacity:1" fill="#f4f5f4" d="M -0.5,119.5 C 0.44338,125.728 1.61005,132.062 3,138.5C 17.485,187.159 49.6517,215.825 99.5,224.5C 66.1667,224.5 32.8333,224.5 -0.5,224.5C -0.5,189.5 -0.5,154.5 -0.5,119.5 Z"/></g>
</svg>
