<?xml version="1.0" encoding="UTF-8"?>
<!DOCTYPE svg PUBLIC "-//W3C//DTD SVG 1.1//EN" "http://www.w3.org/Graphics/SVG/1.1/DTD/svg11.dtd">
<svg xmlns="http://www.w3.org/2000/svg" version="1.1" width="204px" height="192px" style="shape-rendering:geometricPrecision; text-rendering:geometricPrecision; image-rendering:optimizeQuality; fill-rule:evenodd; clip-rule:evenodd" xmlns:xlink="http://www.w3.org/1999/xlink">
<g><path style="opacity:1" fill="#000000" d="M -0.5,-0.5 C 67.5,-0.5 135.5,-0.5 203.5,-0.5C 203.5,63.5 203.5,127.5 203.5,191.5C 135.5,191.5 67.5,191.5 -0.5,191.5C -0.5,127.5 -0.5,63.5 -0.5,-0.5 Z"/></g>
<g><path style="opacity:1" fill="#f6f6f6" d="M 169.5,73.5 C 169.41,76.1522 170.076,78.4855 171.5,80.5C 176.738,119.701 161.405,147.201 125.5,163C 105.402,170.089 86.069,168.589 67.5,158.5C 67.2648,157.903 66.7648,157.57 66,157.5C 63.9701,157.954 62.1368,158.62 60.5,159.5C 50.4888,162.169 40.4888,164.836 30.5,167.5C 30.3379,165.473 30.5045,163.473 31,161.5C 34.1393,151.916 36.9727,142.249 39.5,132.5C 35.852,125.559 33.1854,118.226 31.5,110.5C 30.8345,102.517 30.5012,94.5173 30.5,86.5C 37.1787,52.9881 57.1787,32.4881 90.5,25C 128.86,21.8361 155.193,38.0028 169.5,73.5 Z"/></g>
<g><path style="opacity:1" fill="#020202" d="M 159.5,106.5 C 158.232,108.905 157.565,111.572 157.5,114.5C 145.315,143.77 123.315,156.936 91.5,154C 84.1032,152.313 77.1032,149.646 70.5,146C 67.4686,145.505 64.4686,145.671 61.5,146.5C 58.8478,146.41 56.5145,147.076 54.5,148.5C 52.7376,148.357 51.0709,148.691 49.5,149.5C 49.1667,148.833 48.8333,148.167 48.5,147.5C 50.322,141.879 51.9886,136.212 53.5,130.5C 48.167,122.853 44.8336,114.52 43.5,105.5C 43.1045,96.0663 43.7712,86.7329 45.5,77.5C 59.702,43.8344 84.702,31.3344 120.5,40C 143.304,48.8049 156.471,65.3049 160,89.5C 160.469,95.1815 160.302,100.848 159.5,106.5 Z"/></g>
<g><path style="opacity:1" fill="#f9f9f9" d="M 127.5,128.5 C 124.998,128.749 122.498,129.083 120,129.5C 116.511,128.724 113.011,128.058 109.5,127.5C 87.7834,119.95 73.2834,105.284 66,83.5C 64.4056,75.1854 66.9056,68.3521 73.5,63C 77.0915,62.2114 80.5915,62.3781 84,63.5C 86.1636,69.1617 88.3302,74.8284 90.5,80.5C 88.8967,83.2796 87.0634,85.9462 85,88.5C 84.3333,89.8333 84.3333,91.1667 85,92.5C 90.9496,102.618 99.4496,109.618 110.5,113.5C 113.524,109.977 116.691,106.644 120,103.5C 126.171,106.252 132.171,109.252 138,112.5C 137.885,120.105 134.385,125.438 127.5,128.5 Z"/></g>
<g><path style="opacity:1" fill="#848484" d="M 169.5,73.5 C 170.924,75.5145 171.59,77.8478 171.5,80.5C 170.076,78.4855 169.41,76.1522 169.5,73.5 Z"/></g>
<g><path style="opacity:1" fill="#434343" d="M 30.5,86.5 C 30.5012,94.5173 30.8345,102.517 31.5,110.5C 30.0583,105.745 29.3917,100.745 29.5,95.5C 29.502,92.3138 29.8353,89.3138 30.5,86.5 Z"/></g>
<g><path style="opacity:1" fill="#6b6b6b" d="M 45.5,77.5 C 43.7712,86.7329 43.1045,96.0663 43.5,105.5C 42.3454,98.6791 42.1787,91.6791 43,84.5C 43.3903,81.8958 44.2237,79.5625 45.5,77.5 Z"/></g>
<g><path style="opacity:1" fill="#808080" d="M 159.5,106.5 C 159.706,109.495 159.04,112.162 157.5,114.5C 157.565,111.572 158.232,108.905 159.5,106.5 Z"/></g>
<g><path style="opacity:1" fill="#929292" d="M 109.5,127.5 C 113.011,128.058 116.511,128.724 120,129.5C 122.498,129.083 124.998,128.749 127.5,128.5C 121.369,131.265 115.369,130.932 109.5,127.5 Z"/></g>
<g><path style="opacity:1" fill="#979797" d="M 61.5,146.5 C 59.4855,147.924 57.1522,148.59 54.5,148.5C 56.5145,147.076 58.8478,146.41 61.5,146.5 Z"/></g>
<g><path style="opacity:1" fill="#838383" d="M 67.5,158.5 C 65.2362,159.219 62.9029,159.552 60.5,159.5C 62.1368,158.62 63.9701,157.954 66,157.5C 66.7648,157.57 67.2648,157.903 67.5,158.5 Z"/></g>
</svg>
