<?xml version="1.0" encoding="UTF-8"?>
<!DOCTYPE svg PUBLIC "-//W3C//DTD SVG 1.1//EN" "http://www.w3.org/Graphics/SVG/1.1/DTD/svg11.dtd">
<svg xmlns="http://www.w3.org/2000/svg" version="1.1" width="225px" height="225px" style="shape-rendering:geometricPrecision; text-rendering:geometricPrecision; image-rendering:optimizeQuality; fill-rule:evenodd; clip-rule:evenodd" xmlns:xlink="http://www.w3.org/1999/xlink">
<g><path style="opacity:1" fill="#000100" d="M -0.5,-0.5 C 34.5,-0.5 69.5,-0.5 104.5,-0.5C 59.3523,4.79863 27.1856,28.132 8,69.5C -6.77516,111.757 -0.441832,150.424 27,185.5C 48.2302,208.532 74.3969,221.532 105.5,224.5C 70.1667,224.5 34.8333,224.5 -0.5,224.5C -0.5,149.5 -0.5,74.5 -0.5,-0.5 Z"/></g>
<g><path style="opacity:1" fill="#000100" d="M 118.5,-0.5 C 153.833,-0.5 189.167,-0.5 224.5,-0.5C 224.5,34.8333 224.5,70.1667 224.5,105.5C 218.415,54.5741 191.081,20.7407 142.5,4C 134.42,2.15624 126.42,0.656235 118.5,-0.5 Z"/></g>
<g><path style="opacity:1" fill="#0e9d16" d="M 104.5,-0.5 C 109.167,-0.5 113.833,-0.5 118.5,-0.5C 126.42,0.656235 134.42,2.15624 142.5,4C 191.081,20.7407 218.415,54.5741 224.5,105.5C 224.5,109.167 224.5,112.833 224.5,116.5C 219.716,167.22 193.382,201.386 145.5,219C 136.802,221.352 128.135,223.186 119.5,224.5C 114.833,224.5 110.167,224.5 105.5,224.5C 74.3969,221.532 48.2302,208.532 27,185.5C -0.441832,150.424 -6.77516,111.757 8,69.5C 27.1856,28.132 59.3523,4.79863 104.5,-0.5 Z"/></g>
<g><path style="opacity:1" fill="#8dda8d" d="M 101.5,45.5 C 107.987,44.346 114.654,44.1794 121.5,45C 122.737,45.2321 123.737,45.7321 124.5,46.5C 116.868,45.6423 109.201,45.3089 101.5,45.5 Z"/></g>
<g><path style="opacity:1" fill="#f6fcf6" d="M 101.5,45.5 C 109.201,45.3089 116.868,45.6423 124.5,46.5C 153.854,52.5205 171.52,70.1871 177.5,99.5C 178.307,105.464 178.64,111.464 178.5,117.5C 173.602,149.231 155.602,169.064 124.5,177C 108.593,179.358 93.4267,177.192 79,170.5C 68.04,173.857 56.8733,176.524 45.5,178.5C 46.4267,173.387 47.76,168.387 49.5,163.5C 50.9238,161.485 51.5905,159.152 51.5,156.5C 52.3401,152.808 53.3401,149.141 54.5,145.5C 52.8274,141.477 51.1607,137.477 49.5,133.5C 48.0139,128.959 47.0139,124.292 46.5,119.5C 46.3169,112.132 46.6502,104.799 47.5,97.5C 48.6373,93.2784 49.6373,88.9451 50.5,84.5C 61.4147,63.5426 78.4147,50.5426 101.5,45.5 Z"/></g>
<g><path style="opacity:1" fill="#0e9e16" d="M 136.5,62.5 C 143.356,64.7659 149.023,68.7659 153.5,74.5C 154.265,77.0961 154.599,79.7628 154.5,82.5C 156.39,82.2965 157.89,82.9632 159,84.5C 164.711,95.4143 167.211,107.081 166.5,119.5C 165.971,123.949 164.971,128.282 163.5,132.5C 156.498,148.838 144.498,159.504 127.5,164.5C 118.475,164.832 109.475,164.498 100.5,163.5C 96.8686,161.191 92.8686,160.024 88.5,160C 85.7363,158.865 83.2363,157.365 81,155.5C 78.5232,156.969 75.8565,157.969 73,158.5C 71.2841,158.252 69.7841,157.585 68.5,156.5C 68.3937,151.257 67.8937,145.924 67,140.5C 63.7089,136.285 62.5422,131.619 63.5,126.5C 63.1667,125.833 62.8333,125.167 62.5,124.5C 61.7492,125.376 61.2492,126.376 61,127.5C 60.7638,125.236 60.2638,123.069 59.5,121C 60.7797,118.106 61.4464,114.939 61.5,111.5C 58.0538,99.8403 60.5538,89.8403 69,81.5C 70.1827,82.731 71.3493,82.731 72.5,81.5C 74.847,76.2453 78.5137,74.7453 83.5,77C 86.0793,79.438 85.4126,80.938 81.5,81.5C 80.5233,83.4109 79.8567,85.4109 79.5,87.5C 76.7281,99.2758 79.7281,109.276 88.5,117.5C 99.1785,133.834 114.179,142.334 133.5,143C 142.022,141.163 145.855,135.996 145,127.5C 140.189,124.178 135.022,121.511 129.5,119.5C 126.673,121.496 124.339,123.996 122.5,127C 118.632,127.972 115.299,127.139 112.5,124.5C 108.173,120.339 104.006,116.006 100,111.5C 99.5172,110.552 99.3505,109.552 99.5,108.5C 100.5,108.5 101.5,108.5 102.5,108.5C 102.839,103.633 101.672,103.299 99,107.5C 97.7424,105.249 98.4091,103.249 101,101.5C 101.89,94.6168 100.723,88.1168 97.5,82C 98.3081,81.6924 98.9747,81.1924 99.5,80.5C 95.9152,80.2359 92.2485,79.4026 88.5,78C 85.4666,75.3099 82.1332,72.9766 78.5,71C 83.0782,65.6996 88.7449,61.8663 95.5,59.5C 109.454,57.484 123.121,58.484 136.5,62.5 Z"/></g>
<g><path style="opacity:1" fill="#359b35" d="M 153.5,74.5 C 156.458,77.0595 158.958,80.0595 161,83.5C 163.479,90.4363 165.646,97.4363 167.5,104.5C 167.821,109.695 167.487,114.695 166.5,119.5C 167.211,107.081 164.711,95.4143 159,84.5C 157.89,82.9632 156.39,82.2965 154.5,82.5C 154.599,79.7628 154.265,77.0961 153.5,74.5 Z"/></g>
<g><path style="opacity:1" fill="#339b35" d="M 50.5,84.5 C 49.6373,88.9451 48.6373,93.2784 47.5,97.5C 46.7321,98.2625 46.2321,99.2625 46,100.5C 45.18,107.014 45.3467,113.347 46.5,119.5C 47.0139,124.292 48.0139,128.959 49.5,133.5C 47.5197,132.152 46.353,130.152 46,127.5C 43.2358,113.201 44.2358,99.2012 49,85.5C 49.3826,84.944 49.8826,84.6107 50.5,84.5 Z"/></g>
<g><path style="opacity:1" fill="#b0e4b0" d="M 47.5,97.5 C 46.6502,104.799 46.3169,112.132 46.5,119.5C 45.3467,113.347 45.18,107.014 46,100.5C 46.2321,99.2625 46.7321,98.2625 47.5,97.5 Z"/></g>
<g><path style="opacity:1" fill="#7bc280" d="M 177.5,99.5 C 179.03,102.695 179.696,106.195 179.5,110C 179.497,112.69 179.164,115.19 178.5,117.5C 178.64,111.464 178.307,105.464 177.5,99.5 Z"/></g>
<g><path style="opacity:1" fill="#000100" d="M 224.5,116.5 C 224.5,152.5 224.5,188.5 224.5,224.5C 189.5,224.5 154.5,224.5 119.5,224.5C 128.135,223.186 136.802,221.352 145.5,219C 193.382,201.386 219.716,167.22 224.5,116.5 Z"/></g>
<g><path style="opacity:1" fill="#f7fcf7" d="M 94.5,82.5 C 96.8733,87.1354 98.8733,91.9687 100.5,97C 99.9231,100.264 98.4231,103.097 96,105.5C 98.7102,114.058 104.21,120.391 112.5,124.5C 115.299,127.139 118.632,127.972 122.5,127C 124.339,123.996 126.673,121.496 129.5,119.5C 135.022,121.511 140.189,124.178 145,127.5C 145.855,135.996 142.022,141.163 133.5,143C 114.179,142.334 99.1785,133.834 88.5,117.5C 87.3751,115.179 87.2084,112.846 88,110.5C 87,109.167 86,109.167 85,110.5C 79.8913,103.844 78.558,96.5108 81,88.5C 83.0871,87.1659 84.5871,85.3326 85.5,83C 88.4816,82.502 91.4816,82.3354 94.5,82.5 Z"/></g>
<g><path style="opacity:1" fill="#dbf8db" d="M 167.5,104.5 C 168.882,112.721 168.716,121.054 167,129.5C 165.961,130.71 164.794,131.71 163.5,132.5C 164.971,128.282 165.971,123.949 166.5,119.5C 167.487,114.695 167.821,109.695 167.5,104.5 Z"/></g>
<g><path style="opacity:1" fill="#269c27" d="M 136.5,62.5 C 123.121,58.484 109.454,57.484 95.5,59.5C 88.7449,61.8663 83.0782,65.6996 78.5,71C 82.1332,72.9766 85.4666,75.3099 88.5,78C 92.2485,79.4026 95.9152,80.2359 99.5,80.5C 98.9747,81.1924 98.3081,81.6924 97.5,82C 100.723,88.1168 101.89,94.6168 101,101.5C 98.4091,103.249 97.7424,105.249 99,107.5C 101.672,103.299 102.839,103.633 102.5,108.5C 101.5,108.5 100.5,108.5 99.5,108.5C 99.3505,109.552 99.5172,110.552 100,111.5C 104.006,116.006 108.173,120.339 112.5,124.5C 104.21,120.391 98.7102,114.058 96,105.5C 98.4231,103.097 99.9231,100.264 100.5,97C 98.8733,91.9687 96.8733,87.1354 94.5,82.5C 94.3893,81.8826 94.056,81.3826 93.5,81C 90.406,80.3482 87.406,80.6815 84.5,82C 83.3365,84.3284 81.6698,86.1618 79.5,87.5C 79.8567,85.4109 80.5233,83.4109 81.5,81.5C 85.4126,80.938 86.0793,79.438 83.5,77C 78.5137,74.7453 74.847,76.2453 72.5,81.5C 71.3493,82.731 70.1827,82.731 69,81.5C 60.5538,89.8403 58.0538,99.8403 61.5,111.5C 61.4464,114.939 60.7797,118.106 59.5,121C 60.2638,123.069 60.7638,125.236 61,127.5C 61.2492,126.376 61.7492,125.376 62.5,124.5C 62.8333,125.167 63.1667,125.833 63.5,126.5C 62.5422,131.619 63.7089,136.285 67,140.5C 67.8937,145.924 68.3937,151.257 68.5,156.5C 69.7841,157.585 71.2841,158.252 73,158.5C 75.8565,157.969 78.5232,156.969 81,155.5C 83.2363,157.365 85.7363,158.865 88.5,160C 92.8686,160.024 96.8686,161.191 100.5,163.5C 109.475,164.498 118.475,164.832 127.5,164.5C 126.432,165.434 125.099,165.768 123.5,165.5C 116.869,166.331 110.202,166.664 103.5,166.5C 97.8257,165.802 92.4924,164.136 87.5,161.5C 85.6931,159.555 83.3598,158.555 80.5,158.5C 76.5411,158.883 72.8744,159.883 69.5,161.5C 67.1346,162.008 64.8013,162.675 62.5,163.5C 62.1667,162.833 61.8333,162.167 61.5,161.5C 62.9937,155.859 64.3271,150.192 65.5,144.5C 63.6368,138.43 61.4701,132.43 59,126.5C 52.6809,94.3059 64.5142,71.4726 94.5,58C 109.231,53.7805 123.231,55.2805 136.5,62.5 Z"/></g>
<g><path style="opacity:1" fill="#e6fce5" d="M 94.5,82.5 C 91.4816,82.3354 88.4816,82.502 85.5,83C 84.5871,85.3326 83.0871,87.1659 81,88.5C 78.558,96.5108 79.8913,103.844 85,110.5C 86,109.167 87,109.167 88,110.5C 87.2084,112.846 87.3751,115.179 88.5,117.5C 79.7281,109.276 76.7281,99.2758 79.5,87.5C 81.6698,86.1618 83.3365,84.3284 84.5,82C 87.406,80.6815 90.406,80.3482 93.5,81C 94.056,81.3826 94.3893,81.8826 94.5,82.5 Z"/></g>
<g><path style="opacity:1" fill="#abe6aa" d="M 51.5,156.5 C 51.5905,159.152 50.9238,161.485 49.5,163.5C 49.4095,160.848 50.0762,158.515 51.5,156.5 Z"/></g>
<g><path style="opacity:1" fill="#c9f4cb" d="M 87.5,161.5 C 81.5213,160.274 75.5213,160.274 69.5,161.5C 72.8744,159.883 76.5411,158.883 80.5,158.5C 83.3598,158.555 85.6931,159.555 87.5,161.5 Z"/></g>
<g><path style="opacity:1" fill="#97e099" d="M 123.5,165.5 C 119.966,167.048 116.133,167.714 112,167.5C 108.979,167.498 106.146,167.164 103.5,166.5C 110.202,166.664 116.869,166.331 123.5,165.5 Z"/></g>
</svg>
